<?xml version="1.0" standalone="no"?>
<!DOCTYPE svg PUBLIC "-//W3C//DTD SVG 20010904//EN"
 "http://www.w3.org/TR/2001/REC-SVG-20010904/DTD/svg10.dtd">
<svg version="1.0" xmlns="http://www.w3.org/2000/svg"
 width="97.000000pt" height="70.000000pt" viewBox="0 0 97.000000 70.000000"
 preserveAspectRatio="xMidYMid meet">
<metadata>
Created by potrace 1.15, written by Peter Selinger 2001-2017
</metadata>
<g transform="translate(0.000000,70.000000) scale(0.100000,-0.100000)"
fill="#000000" stroke="none">
<path d="M375 628 c-3 -7 12 -49 34 -92 l38 -80 -20 -49 c-17 -41 -18 -50 -6
-58 9 -6 17 -4 24 7 31 49 31 49 51 16 20 -35 22 -36 42 -23 11 7 9 18 -11 58
l-25 49 39 74 c43 82 49 113 22 108 -10 -2 -30 -27 -44 -56 -39 -79 -41 -80
-80 -10 -35 63 -55 80 -64 56z"/>
<path d="M320 305 c-50 -42 -119 -64 -222 -72 -95 -7 -99 -18 -34 -90 34 -37
61 -56 113 -76 72 -28 90 -31 142 -21 42 9 99 63 107 102 4 18 11 35 15 38 5
3 9 28 9 55 0 40 -5 55 -25 74 -33 34 -55 31 -105 -10z m51 -77 c35 -21 39
-26 33 -53 -12 -56 -78 -105 -141 -105 -26 1 -27 1 -9 15 10 8 24 16 30 18 6
2 9 7 6 10 -3 3 -27 -1 -55 -8 -35 -9 -56 -9 -69 -3 -18 10 -18 11 5 24 23 13
21 13 -26 14 l-50 2 30 13 30 13 -44 4 c-78 5 -58 24 38 36 50 6 103 18 118
26 38 21 58 20 104 -6z"/>
<path d="M520 313 c-18 -23 -21 -36 -16 -73 9 -70 23 -146 25 -136 0 5 11 0
24 -11 69 -64 153 -68 254 -13 60 32 123 99 123 130 0 14 -13 18 -82 23 -100
7 -158 26 -217 72 -54 42 -82 44 -111 8z m163 -78 c37 -15 58 -20 150 -30 77
-10 73 -34 -6 -35 l-32 -1 30 -14 c30 -13 30 -13 -25 -15 -55 -2 -55 -2 -25
-15 26 -11 27 -14 12 -20 -10 -4 -41 -4 -69 -1 l-52 7 25 -20 24 -20 -35 -1
c-48 0 -95 31 -120 79 -11 22 -20 45 -20 50 0 10 74 49 96 50 6 1 27 -6 47
-14z"/>
</g>
</svg>
